<?xml version="1.0" encoding="UTF-8"?>
<svg id="Layer_2" data-name="Layer 2" xmlns="http://www.w3.org/2000/svg" viewBox="0 0 362.66 345.83">
  <defs>
    <style>
      .cls-1 {
        fill: #f1f2f2;
        font-family: Anarchaos, Anarchaos;
        font-size: 105.96px;
      }

      .cls-2 {
        fill: none;
        stroke: #fff;
        stroke-miterlimit: 10;
        stroke-width: 3px;
      }

      .cls-3 {
        fill: #58595b;
        font-family: Samurai, Samurai;
        font-size: 345.83px;
      }
    </style>
  </defs>
  <g id="Layer_4" data-name="Layer 4">
    <g>
      <text/>
      <text class="cls-3" transform="translate(0 297.2) scale(1.05 1)"><tspan x="0" y="0">渚</tspan></text>
      <g>
        <path class="cls-2" d="M277.74,195.77h4.98c0,1.83-.19,3.81-.55,5.93l7.83,10.51c2.49-8.51,3.75-17.47,3.75-26.88h-23.79l7.78,10.43Z"/>
        <polygon class="cls-2" points="276.34 201.21 268.56 190.78 256.36 190.78 253.1 201.21 276.34 201.21"/>
        <path class="cls-2" d="M225.77,277.67l4.01-12.85c-4.15,2.13-8.46,3.91-12.93,5.31-7.35,2.3-17.11,3.5-29.26,3.59l9.69,10.33c9.53-.45,19.03-2.58,28.49-6.38Z"/>
        <path class="cls-2" d="M187.81,280.49c-1.49.01-3.01,0-4.57-.01h-32.69l-5.42,10.43h48.54c1.28,0,2.55-.03,3.82-.09l-9.69-10.33Z"/>
        <polygon class="cls-2" points="89.19 293.65 139.12 293.65 144.54 283.22 91.1 283.22 89.19 293.65"/>
        <polygon class="cls-2" points="75.67 242.36 94.18 242.36 96.09 231.93 71.8 231.93 65.24 239.08 65.24 281.41 71.8 288.57 85.72 288.57 87.63 278.13 75.67 278.13 75.67 242.36"/>
        <polygon class="cls-2" points="163.46 239.08 168.88 228.65 138.8 228.65 148.59 239.08 163.46 239.08"/>
        <polygon class="cls-2" points="139.35 234.78 100.47 234.78 98.56 245.21 149.14 245.21 139.35 234.78"/>
        <path class="cls-2" d="M230.76,188.32c0,11.13-4.67,21.12-14.01,29.96-9.34,8.85-18.78,13.27-28.32,13.27h-16.45l-5.42,10.43h16.8c15.7,0,28.72-4.87,39.05-14.61,10.33-9.74,16.29-19.27,17.89-28.62h9.04l3.26-10.43h-21.84Z"/>
        <path class="cls-2" d="M281.23,208.79c-.35,2.02-.86,4.16-1.53,6.44-1.39,4.67-3.68,10.09-6.86,16.25-3.18,6.16-7.36,12.33-12.52,18.48-5.17,6.16-11.33,11.77-18.48,16.84-3.28,2.32-6.67,4.37-10.18,6.17l-4.01,12.85c.9-.36,1.81-.74,2.71-1.13,11.63-5.07,22.06-12.02,31.3-20.87,9.24-8.84,16.74-19.38,22.51-31.6,1.97-4.18,3.6-8.49,4.9-12.92l-7.83-10.51Z"/>
        <polygon class="cls-2" points="221.77 126.41 229.54 136.84 270.95 136.84 274.21 126.41 221.77 126.41"/>
        <polygon class="cls-2" points="290.69 89.73 283.42 113.02 283.42 133.72 276.95 133.72 273.69 144.15 287.29 144.15 293.85 137 293.85 93.17 290.69 89.73"/>
        <polygon class="cls-2" points="186.25 76.02 194.03 86.45 237.45 86.45 246.72 76.02 186.25 76.02"/>
        <polygon class="cls-2" points="285.27 88.49 281.87 84.79 243.99 84.79 234.73 95.22 277.99 95.22 277.99 111.78 285.27 88.49"/>
        <path class="cls-2" d="M102.14,104.21c-6.08,5.82-11.39,12.38-15.97,19.67l10.17,3.64c2.12-3.15,4.5-6.29,7.14-9.44,5.17-6.16,11.33-11.78,18.48-16.84,1.14-.81,2.31-1.58,3.48-2.32l2.36-12.88c-9.38,4.75-17.94,10.8-25.66,18.19Z"/>
        <path class="cls-2" d="M182.97,93.27h11.39l-7.78-10.43h-14.04c-11.73,0-23.4,2.53-35.03,7.6-1.92.84-3.79,1.74-5.64,2.68l-2.36,12.88c6.16-3.92,12.7-6.98,19.63-9.16,8.24-2.58,19.53-3.77,33.84-3.58Z"/>
        <path class="cls-2" d="M73.3,168.35c0-3.58.69-7.7,2.09-12.37,1.39-4.67,3.68-10.08,6.86-16.25,1.55-3.01,3.35-6.03,5.38-9.04l-10.17-3.64c-2.38,3.79-4.57,7.75-6.54,11.93-5.77,12.22-8.65,25.49-8.65,39.8h40.41l1.91-10.43h-31.29Z"/>
        <path class="cls-2" d="M135.5,146.23c-8.08,8.09-12.81,16.22-14.2,24.39h-5.98l-1.91,10.43h17.43c0-11.13,4.67-20.87,14.01-29.21.62-.55,1.24-1.09,1.86-1.6l-11.21-4.01Z"/>
        <path class="cls-2" d="M177.29,123.95c-15.7,0-28.72,4.62-39.05,13.86-1.3,1.16-2.53,2.32-3.69,3.48l11.21,4.01c8.73-7.28,17.55-10.92,26.46-10.92h20.19l9.27-10.43h-24.39Z"/>
        <polygon class="cls-2" points="219.65 130.58 202.2 130.58 192.93 141.01 227.43 141.01 219.65 130.58"/>
      </g>
      <text class="cls-1" transform="translate(147.23 226.52) rotate(-13.9)"><tspan x="0" y="0">A</tspan></text>
    </g>
  </g>
</svg>