<?xml version="1.0" encoding="UTF-8"?>
<svg id="Layer_2" data-name="Layer 2" xmlns="http://www.w3.org/2000/svg" viewBox="0 0 363.66 346.83">
  <defs>
    <style>
      .cls-1 {
        stroke: #fff200;
        stroke-width: 3px;
      }

      .cls-1, .cls-2 {
        fill: none;
        stroke-miterlimit: 10;
      }

      .cls-2 {
        font-family: Samurai, Samurai;
        font-size: 345.83px;
        stroke: #f7941d;
      }

      .cls-3 {
        fill: #00a79d;
        font-family: Anarchaos, Anarchaos;
        font-size: 105.96px;
      }
    </style>
  </defs>
  <g id="Layer_4" data-name="Layer 4">
    <g>
      <text class="cls-2" transform="translate(.5 297.7) scale(1.05 1)"><tspan x="0" y="0">渚</tspan></text>
      <g>
        <text/>
        <path class="cls-1" d="M278.24,196.27h4.98c0,1.83-.19,3.81-.55,5.93l7.83,10.51c2.49-8.51,3.75-17.47,3.75-26.88h-23.79l7.78,10.43Z"/>
        <polygon class="cls-1" points="276.84 201.71 269.06 191.28 256.86 191.28 253.6 201.71 276.84 201.71"/>
        <path class="cls-1" d="M226.27,278.16l4.01-12.85c-4.15,2.13-8.46,3.91-12.93,5.31-7.35,2.3-17.11,3.5-29.26,3.59l9.69,10.33c9.53-.45,19.03-2.58,28.49-6.38Z"/>
        <path class="cls-1" d="M188.31,280.99c-1.49.01-3.01,0-4.57-.01h-32.69l-5.42,10.43h48.54c1.28,0,2.55-.03,3.82-.09l-9.69-10.33Z"/>
        <polygon class="cls-1" points="89.69 294.15 139.62 294.15 145.04 283.72 91.6 283.72 89.69 294.15"/>
        <polygon class="cls-1" points="76.17 242.86 94.68 242.86 96.59 232.42 72.3 232.42 65.74 239.58 65.74 281.91 72.3 289.07 86.22 289.07 88.13 278.63 76.17 278.63 76.17 242.86"/>
        <polygon class="cls-1" points="163.96 239.58 169.38 229.15 139.3 229.15 149.09 239.58 163.96 239.58"/>
        <polygon class="cls-1" points="139.85 235.28 100.97 235.28 99.06 245.71 149.64 245.71 139.85 235.28"/>
        <path class="cls-1" d="M231.26,188.82c0,11.13-4.67,21.12-14.01,29.96-9.34,8.85-18.78,13.27-28.32,13.27h-16.45l-5.42,10.43h16.8c15.7,0,28.72-4.87,39.05-14.61,10.33-9.74,16.29-19.27,17.89-28.62h9.04l3.26-10.43h-21.84Z"/>
        <path class="cls-1" d="M281.73,209.29c-.35,2.02-.86,4.16-1.53,6.44-1.39,4.67-3.68,10.09-6.86,16.25-3.18,6.16-7.36,12.33-12.52,18.48-5.17,6.16-11.33,11.77-18.48,16.84-3.28,2.32-6.67,4.37-10.18,6.17l-4.01,12.85c.9-.36,1.81-.74,2.71-1.13,11.63-5.07,22.06-12.02,31.3-20.87,9.24-8.84,16.74-19.38,22.51-31.6,1.97-4.18,3.6-8.49,4.9-12.92l-7.83-10.51Z"/>
        <polygon class="cls-1" points="222.27 126.91 230.04 137.34 271.45 137.34 274.71 126.91 222.27 126.91"/>
        <polygon class="cls-1" points="291.19 90.23 283.92 113.52 283.92 134.22 277.45 134.22 274.19 144.65 287.79 144.65 294.35 137.5 294.35 93.67 291.19 90.23"/>
        <polygon class="cls-1" points="186.75 76.52 194.53 86.95 237.95 86.95 247.22 76.52 186.75 76.52"/>
        <polygon class="cls-1" points="285.77 88.99 282.37 85.29 244.49 85.29 235.23 95.72 278.49 95.72 278.49 112.28 285.77 88.99"/>
        <path class="cls-1" d="M102.64,104.71c-6.08,5.82-11.39,12.38-15.97,19.67l10.17,3.64c2.12-3.15,4.5-6.29,7.14-9.44,5.17-6.16,11.33-11.78,18.48-16.84,1.14-.81,2.31-1.58,3.48-2.32l2.36-12.88c-9.38,4.75-17.94,10.8-25.66,18.19Z"/>
        <path class="cls-1" d="M183.47,93.77h11.39l-7.78-10.43h-14.04c-11.73,0-23.4,2.53-35.03,7.6-1.92.84-3.79,1.74-5.64,2.68l-2.36,12.88c6.16-3.92,12.7-6.98,19.63-9.16,8.24-2.58,19.53-3.77,33.84-3.58Z"/>
        <path class="cls-1" d="M73.8,168.85c0-3.58.69-7.7,2.09-12.37,1.39-4.67,3.68-10.08,6.86-16.25,1.55-3.01,3.35-6.03,5.38-9.04l-10.17-3.64c-2.38,3.79-4.57,7.75-6.54,11.93-5.77,12.22-8.65,25.49-8.65,39.8h40.41l1.91-10.43h-31.29Z"/>
        <path class="cls-1" d="M136,146.73c-8.08,8.09-12.81,16.22-14.2,24.39h-5.98l-1.91,10.43h17.43c0-11.13,4.67-20.87,14.01-29.21.62-.55,1.24-1.09,1.86-1.6l-11.21-4.01Z"/>
        <path class="cls-1" d="M177.79,124.45c-15.7,0-28.72,4.62-39.05,13.86-1.3,1.16-2.53,2.32-3.69,3.48l11.21,4.01c8.73-7.28,17.55-10.92,26.46-10.92h20.19l9.27-10.43h-24.39Z"/>
        <polygon class="cls-1" points="220.15 131.08 202.7 131.08 193.43 141.51 227.93 141.51 220.15 131.08"/>
      </g>
      <text/>
      <text class="cls-3" transform="translate(147.73 227.02) rotate(-13.9)"><tspan x="0" y="0">A</tspan></text>
    </g>
  </g>
</svg>